<svg width="20" height="20" viewBox="0 0 20 20" fill="none" xmlns="http://www.w3.org/2000/svg">
<g clip-path="url(#clip0_683_2325)">
<path d="M10 20C15.5228 20 20 15.5228 20 10C20 4.47715 15.5228 0 10 0C4.47715 0 0 4.47715 0 10C0 15.5228 4.47715 20 10 20Z" fill="#6DA544"/>
<path d="M9.99914 3.91211L18.26 9.99906L9.99914 16.086L1.73828 9.99906L9.99914 3.91211Z" fill="#FFDA44"/>
<path d="M10.0017 13.478C11.9227 13.478 13.4799 11.9207 13.4799 9.99973C13.4799 8.07875 11.9227 6.52148 10.0017 6.52148C8.0807 6.52148 6.52344 8.07875 6.52344 9.99973C6.52344 11.9207 8.0807 13.478 10.0017 13.478Z" fill="#F0F0F0"/>
<path d="M8.26145 9.7832C7.6566 9.7832 7.07289 9.8752 6.52344 10.0459C6.54777 11.9459 8.0948 13.4789 10.0006 13.4789C11.179 13.4789 12.2198 12.8923 12.849 11.9957C11.7725 10.6482 10.1162 9.7832 8.26145 9.7832V9.7832Z" fill="#0052B4"/>
<path d="M13.4148 10.6661C13.4566 10.4504 13.4793 10.2277 13.4793 9.99973C13.4793 8.07871 11.922 6.52148 10.001 6.52148C8.56766 6.52148 7.33719 7.38871 6.80469 8.62691C7.27539 8.52938 7.76273 8.47801 8.26191 8.47801C10.2821 8.47797 12.1097 9.31773 13.4148 10.6661V10.6661Z" fill="#0052B4"/>
</g>
<defs>
<clipPath id="clip0_683_2325">
<rect width="20" height="20" fill="white"/>
</clipPath>
</defs>
</svg>
