<svg width="820" height="291" viewBox="0 0 820 291" fill="none" xmlns="http://www.w3.org/2000/svg">
<path d="M57.856 130L4.48 37.84H27.52L66.176 104.784L104.832 37.84H127.744L74.368 130H57.856ZM132.343 130V37.84H151.927V130H132.343ZM196.906 130V57.808H160.81V37.84H252.97V57.808H216.874V130H196.906ZM281.231 130C277.818 130 274.66 129.147 271.759 127.44C268.858 125.733 266.554 123.429 264.847 120.528C263.14 117.627 262.287 114.469 262.287 111.056V56.784C262.287 53.2853 263.14 50.128 264.847 47.312C266.554 44.4107 268.858 42.1067 271.759 40.4C274.66 38.6933 277.818 37.84 281.231 37.84H335.503C338.916 37.84 342.031 38.6933 344.847 40.4C347.748 42.1067 350.052 44.4107 351.759 47.312C353.551 50.128 354.447 53.2853 354.447 56.784V111.056C354.447 114.469 353.551 117.627 351.759 120.528C350.052 123.429 347.748 125.733 344.847 127.44C342.031 129.147 338.916 130 335.503 130H281.231ZM282.127 110.032H334.351V57.808H282.127V110.032ZM297.615 30.16L304.143 4.17599H324.239L317.711 30.16H297.615ZM440.095 130L413.343 98.128H439.327L460.575 123.216V130H440.095ZM368.543 130V37.968H441.631C445.13 37.968 448.287 38.8213 451.103 40.528C454.004 42.2347 456.308 44.5387 458.015 47.44C459.807 50.3413 460.703 53.4987 460.703 56.912V80.72C460.703 84.1333 459.807 87.2907 458.015 90.192C456.308 93.0933 454.004 95.3973 451.103 97.104C448.287 98.8107 445.13 99.664 441.631 99.664L388.383 99.792V130H368.543ZM388.383 79.696H440.607V57.808H388.383V79.696ZM470.968 130V37.84H490.552V130H470.968ZM501.799 130V56.784C501.799 53.2853 502.652 50.128 504.359 47.312C506.066 44.4107 508.37 42.1067 511.271 40.4C514.172 38.6933 517.33 37.84 520.743 37.84H574.887C578.386 37.84 581.543 38.6933 584.359 40.4C587.26 42.1067 589.564 44.4107 591.271 47.312C593.063 50.128 593.959 53.2853 593.959 56.784V130H573.863V100.304H521.639V130H501.799ZM521.639 80.336H573.863V57.808H521.639V80.336Z" fill="white"/>
<path d="M211.656 260V187.808H175.56V167.84H267.72V187.808H231.624V260H211.656ZM277.549 260V167.84H362.669V187.808H297.645V203.936H349.997V223.904H297.645V240.032H362.669V260H277.549ZM375.293 260V167.84H395.773L447.357 229.28V167.84H467.453V260H446.973L395.133 198.304V260H375.293ZM500.481 260C497.068 260 493.91 259.147 491.009 257.44C488.108 255.733 485.804 253.429 484.097 250.528C482.39 247.627 481.537 244.469 481.537 241.056V186.784C481.537 183.285 482.39 180.128 484.097 177.312C485.804 174.411 488.108 172.107 491.009 170.4C493.91 168.693 497.068 167.84 500.481 167.84H554.753C558.166 167.84 561.281 168.693 564.097 170.4C566.998 172.107 569.302 174.411 571.009 177.312C572.801 180.128 573.697 183.285 573.697 186.784V241.056C573.697 244.469 572.801 247.627 571.009 250.528C569.302 253.429 566.998 255.733 564.097 257.44C561.281 259.147 558.166 260 554.753 260H500.481ZM501.377 240.032H553.601V187.808H501.377V240.032ZM516.865 160.16L523.393 134.176H543.489L536.961 160.16H516.865ZM659.345 260L632.593 228.128H658.577L679.825 253.216V260H659.345ZM587.793 260V167.968H660.881C664.38 167.968 667.537 168.821 670.353 170.528C673.254 172.235 675.558 174.539 677.265 177.44C679.057 180.341 679.953 183.499 679.953 186.912V210.72C679.953 214.133 679.057 217.291 677.265 220.192C675.558 223.093 673.254 225.397 670.353 227.104C667.537 228.811 664.38 229.664 660.881 229.664L607.633 229.792V260H587.793ZM607.633 209.696H659.857V187.808H607.633V209.696ZM690.218 260V167.84H709.802V260H690.218ZM739.481 260C736.068 260 732.91 259.147 730.009 257.44C727.108 255.733 724.804 253.429 723.097 250.528C721.39 247.627 720.537 244.469 720.537 241.056V186.784C720.537 183.285 721.39 180.128 723.097 177.312C724.804 174.411 727.108 172.107 730.009 170.4C732.91 168.693 736.068 167.84 739.481 167.84H793.753C797.166 167.84 800.281 168.693 803.097 170.4C805.998 172.107 808.302 174.411 810.009 177.312C811.801 180.128 812.697 183.285 812.697 186.784V241.056C812.697 244.469 811.801 247.627 810.009 250.528C808.302 253.429 805.998 255.733 803.097 257.44C800.281 259.147 797.166 260 793.753 260H739.481ZM740.377 240.032H792.601V187.808H740.377V240.032Z" fill="white"/>
</svg>
